<?xml version="1.0" encoding="utf-8" standalone="no"?>
<!DOCTYPE svg PUBLIC "-//W3C//DTD SVG 1.1//EN"
  "http://www.w3.org/Graphics/SVG/1.1/DTD/svg11.dtd">
<!-- Created with matplotlib (https://matplotlib.org/) -->
<svg height="288pt" version="1.1" viewBox="0 0 432 288" width="432pt" xmlns="http://www.w3.org/2000/svg" xmlns:xlink="http://www.w3.org/1999/xlink">
 <defs>
  <style type="text/css">
*{stroke-linecap:butt;stroke-linejoin:round;}
  </style>
 </defs>
 <g id="figure_1">
  <g id="patch_1">
   <path d="M 0 288 
L 432 288 
L 432 0 
L 0 0 
z
" style="fill:#ffffff;"/>
  </g>
  <g id="axes_1">
   <g id="patch_2">
    <path d="M 62.03 234.52 
L 405.765 234.52 
L 405.765 25.92 
L 62.03 25.92 
z
" style="fill:#ffffff;"/>
   </g>
   <g id="matplotlib.axis_1">
    <g id="xtick_1">
     <g id="line2d_1">
      <defs>
       <path d="M 0 0 
L 0 3.5 
" id="m37e094cc59" style="stroke:#000000;stroke-width:0.8;"/>
      </defs>
      <g>
       <use style="stroke:#000000;stroke-width:0.8;" x="62.03" xlink:href="#m37e094cc59" y="234.52"/>
      </g>
     </g>
     <g id="text_1">
      <!-- 0.0 -->
      <defs>
       <path d="M 31.78125 66.40625 
Q 24.171875 66.40625 20.328125 58.90625 
Q 16.5 51.421875 16.5 36.375 
Q 16.5 21.390625 20.328125 13.890625 
Q 24.171875 6.390625 31.78125 6.390625 
Q 39.453125 6.390625 43.28125 13.890625 
Q 47.125 21.390625 47.125 36.375 
Q 47.125 51.421875 43.28125 58.90625 
Q 39.453125 66.40625 31.78125 66.40625 
z
M 31.78125 74.21875 
Q 44.046875 74.21875 50.515625 64.515625 
Q 56.984375 54.828125 56.984375 36.375 
Q 56.984375 17.96875 50.515625 8.265625 
Q 44.046875 -1.421875 31.78125 -1.421875 
Q 19.53125 -1.421875 13.0625 8.265625 
Q 6.59375 17.96875 6.59375 36.375 
Q 6.59375 54.828125 13.0625 64.515625 
Q 19.53125 74.21875 31.78125 74.21875 
z
" id="DejaVuSans-48"/>
       <path d="M 10.6875 12.40625 
L 21 12.40625 
L 21 0 
L 10.6875 0 
z
" id="DejaVuSans-46"/>
      </defs>
      <g transform="translate(50.897813 252.157812)scale(0.14 -0.14)">
       <use xlink:href="#DejaVuSans-48"/>
       <use x="63.623047" xlink:href="#DejaVuSans-46"/>
       <use x="95.410156" xlink:href="#DejaVuSans-48"/>
      </g>
     </g>
    </g>
    <g id="xtick_2">
     <g id="line2d_2">
      <g>
       <use style="stroke:#000000;stroke-width:0.8;" x="130.777" xlink:href="#m37e094cc59" y="234.52"/>
      </g>
     </g>
     <g id="text_2">
      <!-- 0.2 -->
      <defs>
       <path d="M 19.1875 8.296875 
L 53.609375 8.296875 
L 53.609375 0 
L 7.328125 0 
L 7.328125 8.296875 
Q 12.9375 14.109375 22.625 23.890625 
Q 32.328125 33.6875 34.8125 36.53125 
Q 39.546875 41.84375 41.421875 45.53125 
Q 43.3125 49.21875 43.3125 52.78125 
Q 43.3125 58.59375 39.234375 62.25 
Q 35.15625 65.921875 28.609375 65.921875 
Q 23.96875 65.921875 18.8125 64.3125 
Q 13.671875 62.703125 7.8125 59.421875 
L 7.8125 69.390625 
Q 13.765625 71.78125 18.9375 73 
Q 24.125 74.21875 28.421875 74.21875 
Q 39.75 74.21875 46.484375 68.546875 
Q 53.21875 62.890625 53.21875 53.421875 
Q 53.21875 48.921875 51.53125 44.890625 
Q 49.859375 40.875 45.40625 35.40625 
Q 44.1875 33.984375 37.640625 27.21875 
Q 31.109375 20.453125 19.1875 8.296875 
z
" id="DejaVuSans-50"/>
      </defs>
      <g transform="translate(119.644812 252.157812)scale(0.14 -0.14)">
       <use xlink:href="#DejaVuSans-48"/>
       <use x="63.623047" xlink:href="#DejaVuSans-46"/>
       <use x="95.410156" xlink:href="#DejaVuSans-50"/>
      </g>
     </g>
    </g>
    <g id="xtick_3">
     <g id="line2d_3">
      <g>
       <use style="stroke:#000000;stroke-width:0.8;" x="199.524" xlink:href="#m37e094cc59" y="234.52"/>
      </g>
     </g>
     <g id="text_3">
      <!-- 0.4 -->
      <defs>
       <path d="M 37.796875 64.3125 
L 12.890625 25.390625 
L 37.796875 25.390625 
z
M 35.203125 72.90625 
L 47.609375 72.90625 
L 47.609375 25.390625 
L 58.015625 25.390625 
L 58.015625 17.1875 
L 47.609375 17.1875 
L 47.609375 0 
L 37.796875 0 
L 37.796875 17.1875 
L 4.890625 17.1875 
L 4.890625 26.703125 
z
" id="DejaVuSans-52"/>
      </defs>
      <g transform="translate(188.391813 252.157812)scale(0.14 -0.14)">
       <use xlink:href="#DejaVuSans-48"/>
       <use x="63.623047" xlink:href="#DejaVuSans-46"/>
       <use x="95.410156" xlink:href="#DejaVuSans-52"/>
      </g>
     </g>
    </g>
    <g id="xtick_4">
     <g id="line2d_4">
      <g>
       <use style="stroke:#000000;stroke-width:0.8;" x="268.271" xlink:href="#m37e094cc59" y="234.52"/>
      </g>
     </g>
     <g id="text_4">
      <!-- 0.6 -->
      <defs>
       <path d="M 33.015625 40.375 
Q 26.375 40.375 22.484375 35.828125 
Q 18.609375 31.296875 18.609375 23.390625 
Q 18.609375 15.53125 22.484375 10.953125 
Q 26.375 6.390625 33.015625 6.390625 
Q 39.65625 6.390625 43.53125 10.953125 
Q 47.40625 15.53125 47.40625 23.390625 
Q 47.40625 31.296875 43.53125 35.828125 
Q 39.65625 40.375 33.015625 40.375 
z
M 52.59375 71.296875 
L 52.59375 62.3125 
Q 48.875 64.0625 45.09375 64.984375 
Q 41.3125 65.921875 37.59375 65.921875 
Q 27.828125 65.921875 22.671875 59.328125 
Q 17.53125 52.734375 16.796875 39.40625 
Q 19.671875 43.65625 24.015625 45.921875 
Q 28.375 48.1875 33.59375 48.1875 
Q 44.578125 48.1875 50.953125 41.515625 
Q 57.328125 34.859375 57.328125 23.390625 
Q 57.328125 12.15625 50.6875 5.359375 
Q 44.046875 -1.421875 33.015625 -1.421875 
Q 20.359375 -1.421875 13.671875 8.265625 
Q 6.984375 17.96875 6.984375 36.375 
Q 6.984375 53.65625 15.1875 63.9375 
Q 23.390625 74.21875 37.203125 74.21875 
Q 40.921875 74.21875 44.703125 73.484375 
Q 48.484375 72.75 52.59375 71.296875 
z
" id="DejaVuSans-54"/>
      </defs>
      <g transform="translate(257.138813 252.157812)scale(0.14 -0.14)">
       <use xlink:href="#DejaVuSans-48"/>
       <use x="63.623047" xlink:href="#DejaVuSans-46"/>
       <use x="95.410156" xlink:href="#DejaVuSans-54"/>
      </g>
     </g>
    </g>
    <g id="xtick_5">
     <g id="line2d_5">
      <g>
       <use style="stroke:#000000;stroke-width:0.8;" x="337.018" xlink:href="#m37e094cc59" y="234.52"/>
      </g>
     </g>
     <g id="text_5">
      <!-- 0.8 -->
      <defs>
       <path d="M 31.78125 34.625 
Q 24.75 34.625 20.71875 30.859375 
Q 16.703125 27.09375 16.703125 20.515625 
Q 16.703125 13.921875 20.71875 10.15625 
Q 24.75 6.390625 31.78125 6.390625 
Q 38.8125 6.390625 42.859375 10.171875 
Q 46.921875 13.96875 46.921875 20.515625 
Q 46.921875 27.09375 42.890625 30.859375 
Q 38.875 34.625 31.78125 34.625 
z
M 21.921875 38.8125 
Q 15.578125 40.375 12.03125 44.71875 
Q 8.5 49.078125 8.5 55.328125 
Q 8.5 64.0625 14.71875 69.140625 
Q 20.953125 74.21875 31.78125 74.21875 
Q 42.671875 74.21875 48.875 69.140625 
Q 55.078125 64.0625 55.078125 55.328125 
Q 55.078125 49.078125 51.53125 44.71875 
Q 48 40.375 41.703125 38.8125 
Q 48.828125 37.15625 52.796875 32.3125 
Q 56.78125 27.484375 56.78125 20.515625 
Q 56.78125 9.90625 50.3125 4.234375 
Q 43.84375 -1.421875 31.78125 -1.421875 
Q 19.734375 -1.421875 13.25 4.234375 
Q 6.78125 9.90625 6.78125 20.515625 
Q 6.78125 27.484375 10.78125 32.3125 
Q 14.796875 37.15625 21.921875 38.8125 
z
M 18.3125 54.390625 
Q 18.3125 48.734375 21.84375 45.5625 
Q 25.390625 42.390625 31.78125 42.390625 
Q 38.140625 42.390625 41.71875 45.5625 
Q 45.3125 48.734375 45.3125 54.390625 
Q 45.3125 60.0625 41.71875 63.234375 
Q 38.140625 66.40625 31.78125 66.40625 
Q 25.390625 66.40625 21.84375 63.234375 
Q 18.3125 60.0625 18.3125 54.390625 
z
" id="DejaVuSans-56"/>
      </defs>
      <g transform="translate(325.885813 252.157812)scale(0.14 -0.14)">
       <use xlink:href="#DejaVuSans-48"/>
       <use x="63.623047" xlink:href="#DejaVuSans-46"/>
       <use x="95.410156" xlink:href="#DejaVuSans-56"/>
      </g>
     </g>
    </g>
    <g id="xtick_6">
     <g id="line2d_6">
      <g>
       <use style="stroke:#000000;stroke-width:0.8;" x="405.765" xlink:href="#m37e094cc59" y="234.52"/>
      </g>
     </g>
     <g id="text_6">
      <!-- 1.0 -->
      <defs>
       <path d="M 12.40625 8.296875 
L 28.515625 8.296875 
L 28.515625 63.921875 
L 10.984375 60.40625 
L 10.984375 69.390625 
L 28.421875 72.90625 
L 38.28125 72.90625 
L 38.28125 8.296875 
L 54.390625 8.296875 
L 54.390625 0 
L 12.40625 0 
z
" id="DejaVuSans-49"/>
      </defs>
      <g transform="translate(394.632812 252.157812)scale(0.14 -0.14)">
       <use xlink:href="#DejaVuSans-49"/>
       <use x="63.623047" xlink:href="#DejaVuSans-46"/>
       <use x="95.410156" xlink:href="#DejaVuSans-48"/>
      </g>
     </g>
    </g>
    <g id="text_7">
     <!-- $x_1$ -->
     <defs>
      <path d="M 60.015625 54.6875 
L 34.90625 27.875 
L 50.296875 0 
L 39.984375 0 
L 28.421875 21.6875 
L 8.296875 0 
L -2.59375 0 
L 24.3125 28.8125 
L 10.015625 54.6875 
L 20.3125 54.6875 
L 30.8125 34.90625 
L 49.125 54.6875 
z
" id="DejaVuSans-Oblique-120"/>
     </defs>
     <g transform="translate(226.4075 269.707187)scale(0.14 -0.14)">
      <use transform="translate(0 0.3125)" xlink:href="#DejaVuSans-Oblique-120"/>
      <use transform="translate(59.179688 -16.09375)scale(0.7)" xlink:href="#DejaVuSans-49"/>
     </g>
    </g>
   </g>
   <g id="matplotlib.axis_2">
    <g id="ytick_1">
     <g id="line2d_7">
      <defs>
       <path d="M 0 0 
L -3.5 0 
" id="mbbd836d299" style="stroke:#000000;stroke-width:0.8;"/>
      </defs>
      <g>
       <use style="stroke:#000000;stroke-width:0.8;" x="62.03" xlink:href="#mbbd836d299" y="234.52"/>
      </g>
     </g>
     <g id="text_8">
      <!-- 0.0 -->
      <g transform="translate(32.765625 239.838906)scale(0.14 -0.14)">
       <use xlink:href="#DejaVuSans-48"/>
       <use x="63.623047" xlink:href="#DejaVuSans-46"/>
       <use x="95.410156" xlink:href="#DejaVuSans-48"/>
      </g>
     </g>
    </g>
    <g id="ytick_2">
     <g id="line2d_8">
      <g>
       <use style="stroke:#000000;stroke-width:0.8;" x="62.03" xlink:href="#mbbd836d299" y="192.8"/>
      </g>
     </g>
     <g id="text_9">
      <!-- 0.2 -->
      <g transform="translate(32.765625 198.118906)scale(0.14 -0.14)">
       <use xlink:href="#DejaVuSans-48"/>
       <use x="63.623047" xlink:href="#DejaVuSans-46"/>
       <use x="95.410156" xlink:href="#DejaVuSans-50"/>
      </g>
     </g>
    </g>
    <g id="ytick_3">
     <g id="line2d_9">
      <g>
       <use style="stroke:#000000;stroke-width:0.8;" x="62.03" xlink:href="#mbbd836d299" y="151.08"/>
      </g>
     </g>
     <g id="text_10">
      <!-- 0.4 -->
      <g transform="translate(32.765625 156.398906)scale(0.14 -0.14)">
       <use xlink:href="#DejaVuSans-48"/>
       <use x="63.623047" xlink:href="#DejaVuSans-46"/>
       <use x="95.410156" xlink:href="#DejaVuSans-52"/>
      </g>
     </g>
    </g>
    <g id="ytick_4">
     <g id="line2d_10">
      <g>
       <use style="stroke:#000000;stroke-width:0.8;" x="62.03" xlink:href="#mbbd836d299" y="109.36"/>
      </g>
     </g>
     <g id="text_11">
      <!-- 0.6 -->
      <g transform="translate(32.765625 114.678906)scale(0.14 -0.14)">
       <use xlink:href="#DejaVuSans-48"/>
       <use x="63.623047" xlink:href="#DejaVuSans-46"/>
       <use x="95.410156" xlink:href="#DejaVuSans-54"/>
      </g>
     </g>
    </g>
    <g id="ytick_5">
     <g id="line2d_11">
      <g>
       <use style="stroke:#000000;stroke-width:0.8;" x="62.03" xlink:href="#mbbd836d299" y="67.64"/>
      </g>
     </g>
     <g id="text_12">
      <!-- 0.8 -->
      <g transform="translate(32.765625 72.958906)scale(0.14 -0.14)">
       <use xlink:href="#DejaVuSans-48"/>
       <use x="63.623047" xlink:href="#DejaVuSans-46"/>
       <use x="95.410156" xlink:href="#DejaVuSans-56"/>
      </g>
     </g>
    </g>
    <g id="ytick_6">
     <g id="line2d_12">
      <g>
       <use style="stroke:#000000;stroke-width:0.8;" x="62.03" xlink:href="#mbbd836d299" y="25.92"/>
      </g>
     </g>
     <g id="text_13">
      <!-- 1.0 -->
      <g transform="translate(32.765625 31.238906)scale(0.14 -0.14)">
       <use xlink:href="#DejaVuSans-49"/>
       <use x="63.623047" xlink:href="#DejaVuSans-46"/>
       <use x="95.410156" xlink:href="#DejaVuSans-48"/>
      </g>
     </g>
    </g>
    <g id="text_14">
     <!-- $x_2$ -->
     <g transform="translate(25.854062 137.71)rotate(-90)scale(0.14 -0.14)">
      <use transform="translate(0 0.3125)" xlink:href="#DejaVuSans-Oblique-120"/>
      <use transform="translate(59.179688 -16.09375)scale(0.7)" xlink:href="#DejaVuSans-50"/>
     </g>
    </g>
   </g>
   <g id="LineCollection_1"/>
   <g id="LineCollection_2">
    <path clip-path="url(#p2c32003acf)" d="M 197.805325 133.492399 
L 196.703247 133.349 
L 196.08665 133.233476 
L 194.367975 132.4368 
L 194.193144 132.306 
L 193.381613 131.263 
L 193.119025 130.22 
L 193.370365 129.177 
L 194.102578 128.134 
L 194.367975 127.899137 
L 195.838144 127.091 
L 196.08665 126.989604 
L 197.805325 126.703555 
L 199.524 126.823034 
L 200.413417 127.091 
L 201.242675 127.427744 
L 202.232474 128.134 
L 202.96135 128.971347 
L 203.087282 129.177 
L 203.307194 130.22 
L 203.076797 131.263 
L 202.96135 131.432151 
L 202.113992 132.306 
L 201.242675 132.828363 
L 199.72162 133.349 
L 199.524 133.396004 
L 197.805325 133.492399 
" style="fill:none;stroke:#516ddb;stroke-opacity:0.8;stroke-width:1.5;"/>
   </g>
   <g id="LineCollection_3">
    <path clip-path="url(#p2c32003acf)" d="M 189.21195 143.961753 
L 187.493275 143.55223 
L 184.959191 142.736 
L 182.605989 141.693 
L 180.849805 140.65 
L 179.486813 139.607 
L 178.390287 138.564 
L 177.181225 137.063552 
L 176.254531 135.435 
L 175.491947 133.349 
L 175.281305 132.306 
L 175.120853 130.22 
L 175.268703 128.134 
L 175.708883 126.048 
L 176.42669 123.962 
L 177.389379 121.876 
L 178.8999 119.389454 
L 180.618575 117.155804 
L 182.33725 115.307817 
L 184.315837 113.532 
L 185.7746 112.388863 
L 187.493275 111.227817 
L 189.21195 110.23492 
L 191.027217 109.36 
L 193.894858 108.317 
L 194.367975 108.16518 
L 196.08665 107.764782 
L 197.805325 107.511523 
L 199.524 107.40735 
L 201.242675 107.456371 
L 202.96135 107.664878 
L 205.543329 108.317 
L 206.3987 108.591485 
L 208.186144 109.36 
L 210.09281 110.403 
L 211.688803 111.446 
L 214.297555 113.532 
L 215.432095 114.575 
L 217.433111 116.661 
L 219.160994 118.747 
L 220.645322 120.833 
L 221.892999 122.919 
L 222.864253 125.005 
L 223.58545 127.160832 
L 223.935878 129.177 
L 223.933169 131.263 
L 223.58545 133.01643 
L 223.492995 133.349 
L 223.07167 134.392 
L 222.508175 135.435 
L 221.787738 136.478 
L 220.1481 138.190312 
L 219.722077 138.564 
L 218.322613 139.607 
L 216.582625 140.65 
L 214.388348 141.693 
L 211.554725 142.741911 
L 207.533569 143.779 
L 204.680025 144.27284 
L 201.242675 144.646136 
L 197.805325 144.780688 
L 194.367975 144.663374 
L 190.930625 144.271238 
L 189.21195 143.961753 
L 189.21195 143.961753 
" style="fill:none;stroke:#6b8df0;stroke-opacity:0.8;stroke-width:1.5;"/>
   </g>
   <g id="LineCollection_4">
    <path clip-path="url(#p2c32003acf)" d="M 189.21195 150.043526 
L 185.7746 149.529558 
L 182.33725 148.753972 
L 178.8999 147.620239 
L 177.181225 146.882637 
L 175.263778 145.865 
L 173.656661 144.822 
L 172.0252 143.505979 
L 170.275069 141.693 
L 168.812493 139.607 
L 168.248495 138.564 
L 167.388927 136.478 
L 166.81897 134.392 
L 166.514784 132.306 
L 166.419048 130.22 
L 166.507081 128.134 
L 166.869175 125.394684 
L 167.423179 122.919 
L 168.370502 119.79 
L 169.159727 117.704 
L 170.534083 114.575 
L 172.146001 111.446 
L 173.999293 108.317 
L 176.113097 105.188 
L 178.531817 102.059 
L 180.376485 99.973 
L 181.400845 98.93 
L 183.662853 96.844 
L 184.954282 95.801 
L 186.370511 94.758 
L 187.954928 93.715 
L 190.930625 92.071573 
L 192.6493 91.298402 
L 196.08665 90.08898 
L 199.524 89.287899 
L 202.96135 88.876743 
L 206.3987 88.856917 
L 208.117375 89.004512 
L 211.098305 89.543 
L 211.554725 89.650888 
L 214.287426 90.586 
L 214.992075 90.886325 
L 216.71075 91.787469 
L 218.429425 92.946018 
L 220.466869 94.758 
L 222.234464 96.844 
L 223.637852 98.93 
L 225.3446 102.059 
L 228.745039 109.36 
L 234.340625 121.876 
L 235.366184 125.005 
L 235.844562 127.091 
L 236.106556 129.177 
L 236.104398 131.263 
L 235.786123 133.349 
L 235.093725 135.435 
L 233.962623 137.521 
L 233.204581 138.564 
L 232.178825 139.735658 
L 230.46015 141.320309 
L 228.568741 142.736 
L 226.891101 143.779 
L 223.58545 145.44185 
L 221.866775 146.16112 
L 218.429425 147.361237 
L 214.992075 148.31247 
L 211.554725 149.063712 
L 206.3987 149.86199 
L 202.96135 150.204512 
L 197.805325 150.441186 
L 194.367975 150.410333 
L 190.930625 150.212068 
L 189.21195 150.043526 
L 189.21195 150.043526 
" style="fill:none;stroke:#86a9fc;stroke-opacity:0.8;stroke-width:1.5;"/>
    <path clip-path="url(#p2c32003acf)" d="M 316.3939 142.98637 
L 315.142264 142.736 
L 314.675225 142.635485 
L 312.95655 142.122014 
L 311.831097 141.693 
L 311.237875 141.446426 
L 309.656818 140.65 
L 309.5192 140.573427 
L 308.032655 139.607 
L 307.800525 139.437783 
L 306.745812 138.564 
L 306.08185 137.936096 
L 305.686943 137.521 
L 304.833492 136.478 
L 304.363175 135.791746 
L 304.138903 135.435 
L 303.606963 134.392 
L 303.198182 133.349 
L 302.909563 132.306 
L 302.738263 131.263 
L 302.681687 130.22 
L 302.737574 129.177 
L 302.904084 128.134 
L 303.179887 127.091 
L 303.564246 126.048 
L 304.057109 125.005 
L 304.363175 124.472711 
L 304.684116 123.962 
L 305.457109 122.919 
L 306.08185 122.189309 
L 306.381543 121.876 
L 307.511896 120.833 
L 307.800525 120.594474 
L 308.917727 119.79 
L 309.5192 119.398241 
L 310.703691 118.747 
L 311.237875 118.478215 
L 312.95655 117.778023 
L 313.193842 117.704 
L 314.675225 117.275756 
L 316.3939 116.933424 
L 318.112575 116.743126 
L 319.83125 116.7025 
L 321.549925 116.810157 
L 323.2686 117.065673 
L 324.987275 117.469583 
L 325.716828 117.704 
L 326.70595 118.045117 
L 328.305753 118.747 
L 328.424625 118.803625 
L 330.132127 119.79 
L 330.1433 119.797099 
L 331.533995 120.833 
L 331.861975 121.105777 
L 332.67249 121.876 
L 333.58065 122.856817 
L 333.632077 122.919 
L 334.381768 123.962 
L 335.013318 125.005 
L 335.299325 125.582946 
L 335.508801 126.048 
L 335.874356 127.091 
L 336.135074 128.134 
L 336.291442 129.177 
L 336.343595 130.22 
L 336.2913 131.263 
L 336.133932 132.306 
L 335.870447 133.349 
L 335.499359 134.392 
L 335.299325 134.82755 
L 334.992633 135.435 
L 334.344819 136.478 
L 333.58065 137.508265 
L 333.570067 137.521 
L 332.566215 138.564 
L 331.861975 139.203462 
L 331.352193 139.607 
L 330.1433 140.457516 
L 329.82046 140.65 
L 328.424625 141.400197 
L 327.756416 141.693 
L 326.70595 142.11298 
L 324.987275 142.643031 
L 324.56234 142.736 
L 323.2686 142.997447 
L 321.549925 143.202826 
L 319.83125 143.268107 
L 318.112575 143.195383 
L 316.3939 142.98637 
" style="fill:none;stroke:#86a9fc;stroke-opacity:0.8;stroke-width:1.5;"/>
   </g>
   <g id="LineCollection_5">
    <path clip-path="url(#p2c32003acf)" d="M 184.055925 154.364491 
L 180.618575 153.756328 
L 177.181225 152.892659 
L 173.743875 151.686659 
L 172.0252 150.918545 
L 170.306525 150.006948 
L 168.58785 148.911892 
L 166.869175 147.577733 
L 165.094008 145.865 
L 163.431825 143.774541 
L 162.194213 141.693 
L 161.261854 139.607 
L 160.586533 137.521 
L 159.994475 134.67899 
L 159.829919 133.349 
L 159.682802 130.22 
L 159.811159 127.091 
L 160.169642 123.962 
L 160.938306 119.79 
L 161.951927 115.618 
L 163.49441 110.403 
L 165.305698 105.188 
L 166.984329 101.016 
L 168.58785 97.608046 
L 170.306525 94.541805 
L 172.293219 91.629 
L 174.000807 89.543 
L 176.03383 87.457 
L 178.482621 85.371 
L 180.618575 83.847753 
L 183.313337 82.242 
L 185.7746 81.007043 
L 189.21195 79.603697 
L 192.6493 78.501295 
L 196.08665 77.656998 
L 199.626095 77.027 
L 202.96135 76.643916 
L 206.3987 76.451989 
L 209.83605 76.467259 
L 213.2734 76.697172 
L 216.71075 77.157521 
L 220.1481 77.879677 
L 223.58545 78.907037 
L 225.304125 79.559358 
L 227.0228 80.316003 
L 228.741475 81.200084 
L 230.46015 82.243222 
L 232.178825 83.488654 
L 234.278377 85.371 
L 236.066884 87.457 
L 237.434109 89.543 
L 238.473633 91.629 
L 239.271232 93.715 
L 240.142867 96.844 
L 240.980963 101.016 
L 242.200447 107.274 
L 243.276992 111.446 
L 244.604194 115.618 
L 247.417898 123.962 
L 248.151374 127.091 
L 248.404122 129.177 
L 248.401865 131.263 
L 248.090184 133.349 
L 247.421566 135.435 
L 246.361263 137.521 
L 244.85756 139.607 
L 242.862327 141.693 
L 240.316838 143.779 
L 237.117225 145.865 
L 233.8975 147.564975 
L 230.678516 148.994 
L 227.0228 150.339932 
L 223.58545 151.400727 
L 220.1481 152.293776 
L 214.992075 153.363341 
L 209.434425 154.209 
L 204.680025 154.70793 
L 199.524 155.027389 
L 194.367975 155.10486 
L 189.21195 154.905106 
L 185.7746 154.587956 
L 184.055925 154.364491 
L 184.055925 154.364491 
" style="fill:none;stroke:#a1c0ff;stroke-opacity:0.8;stroke-width:1.5;"/>
    <path clip-path="url(#p2c32003acf)" d="M 318.112575 153.209017 
L 314.675225 152.809391 
L 311.237875 152.103292 
L 307.800525 151.07664 
L 304.363175 149.709817 
L 300.874847 147.951 
L 297.488475 145.807736 
L 294.877423 143.779 
L 292.664731 141.693 
L 290.874069 139.607 
L 289.471946 137.521 
L 288.444873 135.435 
L 287.777073 133.349 
L 287.456218 131.263 
L 287.455219 129.177 
L 287.750374 127.091 
L 288.323672 125.005 
L 289.157708 122.919 
L 290.236644 120.833 
L 291.571087 118.747 
L 293.185594 116.661 
L 295.131023 114.575 
L 297.488475 112.499546 
L 299.20715 111.237531 
L 300.925825 110.147354 
L 302.6445 109.207551 
L 306.08185 107.719047 
L 309.5192 106.671003 
L 312.95655 106.001951 
L 316.3939 105.674726 
L 319.83125 105.665962 
L 323.2686 105.967689 
L 326.70595 106.585905 
L 330.1433 107.538414 
L 333.58065 108.865199 
L 336.613812 110.403 
L 338.736675 111.720464 
L 341.139674 113.532 
L 343.383576 115.618 
L 345.186715 117.704 
L 346.627647 119.79 
L 347.761032 121.876 
L 348.614789 123.962 
L 349.214094 126.048 
L 349.566005 128.134 
L 349.682986 130.22 
L 349.565621 132.306 
L 349.210966 134.392 
L 348.603637 136.478 
L 347.733266 138.564 
L 346.56826 140.65 
L 345.071714 142.736 
L 343.173276 144.822 
L 342.049029 145.865 
L 340.45535 147.144022 
L 338.736675 148.323421 
L 337.018 149.332965 
L 335.299325 150.198129 
L 331.861975 151.554466 
L 328.424625 152.491772 
L 324.987275 153.062349 
L 321.549925 153.294819 
L 318.112575 153.209017 
L 318.112575 153.209017 
" style="fill:none;stroke:#a1c0ff;stroke-opacity:0.8;stroke-width:1.5;"/>
   </g>
   <g id="LineCollection_6">
    <path clip-path="url(#p2c32003acf)" d="M 319.83125 161.572471 
L 316.3939 161.278424 
L 312.95655 160.7483 
L 309.5192 159.98634 
L 306.08185 158.997863 
L 302.6445 157.790081 
L 299.030605 156.295 
L 294.670871 154.209 
L 290.613775 152.027049 
L 285.434292 148.994 
L 276.864375 143.913307 
L 273.427025 142.232242 
L 271.70835 141.596256 
L 269.989675 141.121638 
L 268.271 140.870786 
L 266.552325 140.843989 
L 264.83365 141.035622 
L 262.371443 141.693 
L 261.3963 141.9927 
L 257.95895 143.434933 
L 252.802925 145.93711 
L 245.928225 149.161963 
L 240.7722 151.284713 
L 235.457048 153.166 
L 230.46015 154.652797 
L 225.304125 155.934479 
L 220.1481 156.983875 
L 214.992075 157.827506 
L 209.83605 158.487172 
L 202.96135 159.100289 
L 197.805325 159.362282 
L 191.55958 159.424 
L 187.493275 159.291684 
L 182.33725 158.864709 
L 178.8999 158.379432 
L 175.46255 157.685383 
L 172.0252 156.725511 
L 170.306525 156.120827 
L 168.238723 155.252 
L 166.186477 154.209 
L 164.47215 153.166 
L 163.01256 152.123 
L 161.71315 151.046355 
L 159.709937 148.994 
L 158.130001 146.908 
L 156.905889 144.822 
L 155.956367 142.736 
L 155.22738 140.65 
L 154.682389 138.564 
L 154.156753 135.435 
L 153.904084 132.306 
L 153.87037 129.177 
L 154.087856 125.005 
L 154.654142 119.79 
L 155.597617 113.532 
L 157.252942 104.145 
L 158.339517 98.93 
L 159.444437 94.758 
L 160.504069 91.629 
L 161.861651 88.5 
L 163.431825 85.695282 
L 164.352875 84.328 
L 165.986898 82.242 
L 167.960043 80.156 
L 169.098083 79.113 
L 171.740332 77.027 
L 173.743875 75.68868 
L 177.181225 73.757999 
L 180.618575 72.18221 
L 184.39254 70.769 
L 187.789583 69.726 
L 192.043005 68.683 
L 194.367975 68.218062 
L 199.524 67.446463 
L 204.680025 66.999727 
L 209.83605 66.865615 
L 214.992075 67.046084 
L 218.429425 67.347821 
L 221.866775 67.80358 
L 226.490584 68.683 
L 228.741475 69.227392 
L 232.178825 70.23216 
L 235.616175 71.46916 
L 239.053525 72.980801 
L 242.669817 74.941 
L 245.928225 77.135686 
L 248.341956 79.113 
L 250.45983 81.199 
L 252.218027 83.285 
L 253.674427 85.371 
L 254.86943 87.457 
L 255.845899 89.543 
L 256.9743 92.672 
L 257.785958 95.801 
L 259.797626 105.188 
L 260.504999 107.274 
L 261.3963 109.381057 
L 262.711536 111.446 
L 263.603535 112.489 
L 264.83365 113.611274 
L 266.90688 114.575 
L 268.271 114.821054 
L 270.188106 114.575 
L 271.70835 114.060734 
L 274.414976 112.489 
L 275.899393 111.446 
L 278.653611 109.36 
L 282.741622 106.231 
L 285.816674 104.145 
L 289.394865 102.059 
L 292.33245 100.623571 
L 295.7698 99.22509 
L 299.20715 98.103397 
L 302.6445 97.230411 
L 306.08185 96.585718 
L 309.5192 96.154112 
L 312.95655 95.92678 
L 316.3939 95.897376 
L 319.83125 96.064139 
L 323.2686 96.429885 
L 326.70595 97.000893 
L 330.509322 97.887 
L 333.956651 98.93 
L 337.018 100.06586 
L 340.45535 101.615262 
L 343.8927 103.496181 
L 346.496483 105.188 
L 349.243943 107.274 
L 351.572964 109.36 
L 353.564685 111.446 
L 355.266305 113.532 
L 356.712687 115.618 
L 357.928404 117.704 
L 358.93251 119.79 
L 359.738628 121.876 
L 360.356991 123.962 
L 360.792945 126.048 
L 361.07945 128.570576 
L 361.139198 130.22 
L 361.052177 132.306 
L 360.791411 134.392 
L 360.351669 136.478 
L 359.72552 138.564 
L 358.905785 140.65 
L 357.6421 143.154212 
L 356.628823 144.822 
L 355.129403 146.908 
L 353.34734 148.994 
L 351.233323 151.08 
L 349.048725 152.907594 
L 347.259968 154.209 
L 343.849382 156.295 
L 340.45535 157.949698 
L 337.018 159.268209 
L 333.58065 160.270579 
L 330.1433 160.986226 
L 326.70595 161.433524 
L 323.2686 161.62633 
L 319.83125 161.572471 
L 319.83125 161.572471 
" style="fill:none;stroke:#bbd1f8;stroke-opacity:0.8;stroke-width:1.5;"/>
   </g>
   <g id="LineCollection_7">
    <path clip-path="url(#p2c32003acf)" d="M 318.112575 169.997556 
L 314.675225 169.497205 
L 311.237875 168.791725 
L 307.384037 167.768 
L 304.1185 166.725 
L 300.925825 165.559979 
L 295.7698 163.414544 
L 288.8951 160.235161 
L 282.0204 157.061451 
L 277.513466 155.252 
L 275.1457 154.442028 
L 271.70835 153.527741 
L 268.271 152.957112 
L 264.83365 152.74666 
L 261.3963 152.879835 
L 257.95895 153.301145 
L 253.283229 154.209 
L 249.365575 155.129987 
L 237.33485 158.136537 
L 230.46015 159.644261 
L 223.58545 160.908769 
L 216.71075 161.930917 
L 209.83605 162.728642 
L 202.96135 163.317343 
L 196.08665 163.688616 
L 189.21195 163.803373 
L 184.055925 163.666458 
L 178.8999 163.272791 
L 175.46255 162.820637 
L 172.0252 162.17268 
L 168.58785 161.274292 
L 165.1505 160.048686 
L 163.431825 159.278254 
L 161.71315 158.376768 
L 159.994475 157.315361 
L 157.332739 155.252 
L 156.230174 154.209 
L 154.404385 152.123 
L 152.960826 150.037 
L 151.818206 147.951 
L 150.909351 145.865 
L 150.193281 143.779 
L 149.409928 140.65 
L 148.909507 137.521 
L 148.626509 134.392 
L 148.507216 130.22 
L 148.643528 125.005 
L 149.169464 116.661 
L 149.780235 106.231 
L 150.421255 93.715 
L 150.92682 89.543 
L 151.550421 86.414 
L 152.477728 83.285 
L 153.310174 81.199 
L 154.355374 79.113 
L 155.65004 77.027 
L 157.23843 74.941 
L 159.17454 72.855 
L 161.522687 70.769 
L 163.431825 69.327432 
L 166.024437 67.64 
L 168.58785 66.199427 
L 172.121601 64.511 
L 175.46255 63.157654 
L 178.8999 61.96882 
L 184.055925 60.504293 
L 189.21195 59.360367 
L 194.367975 58.492436 
L 199.524 57.877142 
L 204.680025 57.500187 
L 209.83605 57.354192 
L 214.992075 57.43636 
L 220.1481 57.752405 
L 225.304125 58.314787 
L 230.46015 59.132407 
L 235.616175 60.228826 
L 239.935642 61.382 
L 244.20955 62.746007 
L 248.847553 64.511 
L 252.802925 66.267926 
L 256.240275 67.997199 
L 259.677625 69.918423 
L 264.415218 72.855 
L 273.427025 78.789681 
L 276.864375 80.717761 
L 280.301725 82.218371 
L 282.0204 82.7978 
L 285.45775 83.636028 
L 288.8951 84.134517 
L 292.33245 84.400485 
L 297.488475 84.558259 
L 309.5192 84.793488 
L 314.675225 85.101072 
L 319.83125 85.622092 
L 325.055727 86.414 
L 330.1433 87.471141 
L 334.035643 88.5 
L 337.369464 89.543 
L 340.45535 90.655106 
L 343.8927 92.08151 
L 347.33005 93.731306 
L 351.051071 95.801 
L 354.29096 97.887 
L 357.6421 100.386214 
L 359.619456 102.059 
L 361.83005 104.145 
L 364.5168 107.081577 
L 366.309608 109.36 
L 367.95415 111.779398 
L 369.004686 113.532 
L 370.574055 116.661 
L 371.789147 119.79 
L 372.67436 122.919 
L 373.237586 126.048 
L 373.496862 129.177 
L 373.445064 132.306 
L 373.080404 135.435 
L 372.410028 138.564 
L 371.775501 140.65 
L 370.542486 143.779 
L 368.941102 146.908 
L 367.650434 148.994 
L 366.166401 151.08 
L 364.47113 153.166 
L 362.538041 155.252 
L 360.329555 157.338 
L 357.6421 159.539677 
L 354.20475 161.932502 
L 350.7674 163.936446 
L 347.168461 165.682 
L 343.8927 167.002871 
L 340.45535 168.133335 
L 337.018 169.021761 
L 333.58065 169.682155 
L 330.1433 170.12371 
L 326.70595 170.350878 
L 323.2686 170.366403 
L 319.83125 170.172863 
L 318.112575 169.997556 
L 318.112575 169.997556 
" style="fill:none;stroke:#d3dbe7;stroke-opacity:0.8;stroke-width:1.5;"/>
   </g>
   <g id="LineCollection_8">
    <path clip-path="url(#p2c32003acf)" d="M 321.549925 181.377045 
L 318.112575 180.864312 
L 314.675225 180.144826 
L 311.237875 179.229172 
L 307.800525 178.126263 
L 304.363175 176.845796 
L 299.20715 174.627134 
L 292.33245 171.285681 
L 283.739075 167.009733 
L 280.301725 165.447264 
L 276.864375 164.056854 
L 273.427025 162.886538 
L 269.989675 161.974853 
L 266.552325 161.33995 
L 263.114975 160.981307 
L 259.677625 160.875544 
L 256.240275 160.986013 
L 251.08425 161.457528 
L 244.20955 162.428889 
L 225.304125 165.373465 
L 216.71075 166.459091 
L 206.3987 167.500361 
L 197.805325 168.151621 
L 190.930625 168.497248 
L 184.055925 168.618003 
L 178.8999 168.494735 
L 173.743875 168.103917 
L 170.306525 167.641256 
L 166.869175 166.971124 
L 163.431825 166.029328 
L 159.994475 164.728213 
L 157.70441 163.596 
L 155.953109 162.553 
L 154.458653 161.51 
L 152.03777 159.424 
L 151.038184 158.381 
L 149.362001 156.295 
L 147.96375 154.110534 
L 146.941846 152.123 
L 146.068126 150.037 
L 145.071953 146.908 
L 144.3684 143.779 
L 143.894703 140.65 
L 143.531779 136.478 
L 143.389323 132.306 
L 143.414136 126.048 
L 143.504608 114.575 
L 143.314673 109.36 
L 142.902237 104.145 
L 142.149216 97.887 
L 140.809131 87.457 
L 140.549028 83.285 
L 140.59088 80.156 
L 140.918309 77.027 
L 141.333941 74.941 
L 141.938477 72.855 
L 142.807725 70.682291 
L 143.842842 68.683 
L 145.209727 66.597 
L 146.90638 64.511 
L 148.981097 62.425 
L 151.493692 60.339 
L 154.83845 58.050348 
L 158.2758 56.101358 
L 162.545065 54.081 
L 165.1505 53.013861 
L 168.58785 51.762451 
L 173.743875 50.169486 
L 178.8999 48.861301 
L 184.055925 47.787649 
L 189.21195 46.924259 
L 196.08665 46.072558 
L 202.96135 45.544259 
L 208.117375 45.346485 
L 213.2734 45.321333 
L 218.429425 45.4688 
L 223.58545 45.79223 
L 228.741475 46.285654 
L 233.8975 46.969433 
L 239.053525 47.843413 
L 244.20955 48.910611 
L 249.365575 50.178008 
L 255.610083 51.995 
L 259.677625 53.333304 
L 266.552325 55.861176 
L 275.032538 59.296 
L 282.752957 62.425 
L 288.439069 64.511 
L 292.33245 65.763628 
L 297.488475 67.181387 
L 302.6445 68.364814 
L 309.626779 69.726 
L 323.2686 72.256985 
L 330.608922 73.898 
L 335.299325 75.121554 
L 340.45535 76.677806 
L 345.611375 78.49143 
L 350.7674 80.604165 
L 354.274931 82.242 
L 358.278898 84.328 
L 361.844357 86.414 
L 365.046523 88.5 
L 367.95415 90.599561 
L 371.3915 93.372008 
L 374.074227 95.801 
L 377.123894 98.93 
L 379.77135 102.059 
L 382.068455 105.188 
L 384.040694 108.317 
L 385.708628 111.446 
L 387.089194 114.575 
L 388.208476 117.704 
L 389.068877 120.833 
L 389.678642 123.962 
L 390.036749 127.091 
L 390.154891 130.22 
L 390.036591 133.349 
L 389.677336 136.478 
L 389.064267 139.607 
L 388.197466 142.736 
L 387.06584 145.865 
L 385.666268 148.994 
L 383.968517 152.123 
L 381.70355 155.594335 
L 379.984875 157.881506 
L 377.801948 160.467 
L 374.82885 163.520933 
L 372.450588 165.682 
L 369.672825 167.929266 
L 366.235475 170.384527 
L 362.798125 172.526542 
L 359.360775 174.39748 
L 355.718556 176.112 
L 352.486075 177.433249 
L 349.048725 178.634222 
L 345.611375 179.636792 
L 342.174025 180.446345 
L 338.736675 181.072148 
L 335.299325 181.510031 
L 331.861975 181.764984 
L 328.424625 181.829583 
L 324.987275 181.702529 
L 321.549925 181.377045 
L 321.549925 181.377045 
" style="fill:none;stroke:#e6d7cf;stroke-opacity:0.8;stroke-width:1.5;"/>
   </g>
   <g id="LineCollection_9">
    <path clip-path="url(#p2c32003acf)" d="M 332.21157 234.52 
L 331.483024 233.477 
L 326.271919 226.176 
L 320.858614 218.875 
L 313.519228 209.488 
L 309.5192 204.668477 
L 307.800525 202.644177 
L 305.618777 200.101 
L 300.883388 194.886 
L 296.863117 190.714 
L 292.33245 186.365327 
L 288.8951 183.31276 
L 285.168179 180.284 
L 282.0204 177.983501 
L 278.58305 175.746175 
L 275.1457 173.813546 
L 271.70835 172.203579 
L 269.989675 171.520096 
L 266.552325 170.387512 
L 263.114975 169.554463 
L 259.677625 168.994764 
L 256.240275 168.673164 
L 252.802925 168.551155 
L 247.6469 168.647007 
L 242.490875 168.974185 
L 233.173562 169.854 
L 201.242675 173.124154 
L 189.21195 174.182258 
L 182.33725 174.642089 
L 175.46255 174.860881 
L 170.306525 174.77047 
L 166.869175 174.529453 
L 163.10146 174.026 
L 159.994475 173.396722 
L 156.557125 172.363937 
L 154.83845 171.682942 
L 153.119775 170.864501 
L 151.349406 169.854 
L 149.682425 168.712597 
L 147.377999 166.725 
L 145.499246 164.639 
L 144.009405 162.553 
L 142.807538 160.467 
L 141.830906 158.381 
L 140.690077 155.252 
L 139.853024 152.123 
L 139.250727 148.994 
L 138.724177 144.822 
L 138.434303 140.65 
L 138.290847 135.435 
L 138.055008 118.747 
L 137.6517 113.850808 
L 137.185063 110.403 
L 136.388636 106.231 
L 135.316827 102.059 
L 133.970507 97.887 
L 132.359396 93.715 
L 130.506463 89.543 
L 127.902274 84.328 
L 125.620975 80.117019 
L 120.46495 71.340538 
L 115.533533 63.468 
L 114.196723 61.382 
L 110.1529 55.069788 
L 105.441065 47.823 
L 103.2782 44.444014 
L 100.710155 40.522 
L 91.389497 25.92 
L 91.389497 25.92 
" style="fill:none;stroke:#f3c7b1;stroke-opacity:0.8;stroke-width:1.5;"/>
   </g>
   <g id="LineCollection_10">
    <path clip-path="url(#p2c32003acf)" d="M 62.03 171.463741 
L 65.46735 173.600968 
L 68.9047 175.499613 
L 72.34205 177.183668 
L 75.7794 178.685076 
L 80.935425 180.608455 
L 86.09145 182.178028 
L 91.247475 183.419107 
L 94.684825 184.079752 
L 99.84085 184.809837 
L 104.996875 185.23307 
L 110.1529 185.333676 
L 113.59025 185.203833 
L 117.0276 184.886291 
L 120.46495 184.332228 
L 123.9023 183.447419 
L 125.620975 182.817568 
L 127.33965 181.989778 
L 129.058325 180.841525 
L 129.694967 180.284 
L 130.777 179.057204 
L 131.331401 178.198 
L 131.841638 177.155 
L 132.495675 175.043991 
L 132.812923 172.983 
L 132.973483 169.854 
L 132.884782 164.639 
L 132.602943 153.166 
L 132.685899 144.822 
L 132.984565 128.134 
L 132.782137 122.919 
L 132.384159 118.747 
L 131.899182 115.618 
L 131.23136 112.489 
L 130.345716 109.36 
L 129.058325 105.842238 
L 127.799889 103.102 
L 126.681238 101.016 
L 125.412392 98.93 
L 123.157279 95.801 
L 121.389846 93.715 
L 119.358273 91.629 
L 118.222478 90.586 
L 115.64695 88.5 
L 114.159422 87.457 
L 111.871575 86.029086 
L 108.434225 84.307969 
L 104.996875 82.992603 
L 101.559525 82.043096 
L 98.122175 81.412713 
L 94.684825 81.072683 
L 91.247475 80.995088 
L 87.50681 81.199 
L 84.372775 81.56817 
L 80.763727 82.242 
L 76.712768 83.285 
L 73.505956 84.328 
L 70.623375 85.433982 
L 67.186025 86.975458 
L 63.748675 88.779042 
L 62.03 89.785565 
L 62.03 89.785565 
" style="fill:none;stroke:#f7af91;stroke-opacity:0.8;stroke-width:1.5;"/>
    <path clip-path="url(#p2c32003acf)" d="M 211.554725 210.583874 
L 216.71075 210.670054 
L 221.866775 210.525772 
L 227.0228 210.152899 
L 232.513406 209.488 
L 237.33485 208.666177 
L 242.490875 207.497579 
L 246.448539 206.359 
L 249.483698 205.316 
L 252.802925 203.95322 
L 256.295422 202.187 
L 258.005245 201.144 
L 259.677625 199.957093 
L 261.881668 198.015 
L 263.114975 196.584493 
L 264.217678 194.886 
L 264.83365 193.45241 
L 265.043426 192.8 
L 265.247585 191.757 
L 265.318031 190.714 
L 265.25428 189.671 
L 264.83365 187.949605 
L 264.712579 187.585 
L 264.21438 186.542 
L 263.114975 184.933666 
L 262.723781 184.456 
L 261.3963 183.17536 
L 259.677625 181.902178 
L 257.95895 180.905591 
L 256.240275 180.102593 
L 253.858932 179.241 
L 251.08425 178.513928 
L 247.6469 177.902809 
L 244.20955 177.536525 
L 239.053525 177.301384 
L 233.8975 177.336897 
L 227.0228 177.653594 
L 218.429425 178.323628 
L 209.83605 179.254856 
L 201.242675 180.475405 
L 194.367975 181.694259 
L 189.21195 182.783403 
L 184.055925 184.069859 
L 180.618575 185.079798 
L 178.8999 185.637619 
L 175.46255 186.975412 
L 173.743875 187.777697 
L 172.0252 188.762247 
L 170.306525 190.136485 
L 169.72944 190.714 
L 169.066721 191.757 
L 168.737868 192.8 
L 168.700041 193.843 
L 168.922927 194.886 
L 169.385404 195.929 
L 170.306525 197.242686 
L 170.964577 198.015 
L 172.062196 199.058 
L 173.743875 200.373469 
L 175.46255 201.516051 
L 177.181225 202.514156 
L 180.618575 204.202387 
L 183.338404 205.316 
L 186.301352 206.359 
L 189.804086 207.402 
L 194.367975 208.503662 
L 199.524 209.443165 
L 204.680025 210.101551 
L 210.428108 210.531 
L 211.554725 210.583874 
L 211.554725 210.583874 
" style="fill:none;stroke:#f7af91;stroke-opacity:0.8;stroke-width:1.5;"/>
   </g>
   <g id="LineCollection_11">
    <path clip-path="url(#p2c32003acf)" d="M 62.03 151.793283 
L 63.748675 153.763278 
L 65.46735 155.515973 
L 67.469998 157.338 
L 70.623375 159.823359 
L 73.108702 161.51 
L 75.7794 163.107458 
L 79.21675 164.866265 
L 82.6541 166.334144 
L 86.09145 167.536142 
L 89.5288 168.48932 
L 92.96615 169.198978 
L 96.4035 169.66152 
L 99.84085 169.864743 
L 103.2782 169.784671 
L 106.71555 169.373856 
L 109.203124 168.811 
L 110.1529 168.547462 
L 112.258916 167.768 
L 114.373722 166.725 
L 116.012741 165.682 
L 117.346642 164.639 
L 118.746275 163.298651 
L 120.46495 161.156189 
L 121.533794 159.424 
L 122.588834 157.338 
L 123.814221 154.209 
L 124.450748 152.123 
L 125.467752 147.951 
L 126.044678 144.822 
L 126.636123 140.65 
L 127.048956 136.478 
L 127.271312 132.306 
L 127.26916 128.134 
L 127.089969 125.005 
L 126.729627 121.876 
L 126.159092 118.747 
L 125.334936 115.618 
L 124.201398 112.489 
L 123.239277 110.403 
L 122.101016 108.317 
L 120.46495 105.865205 
L 118.746275 103.750458 
L 117.0276 101.976891 
L 114.661919 99.973 
L 113.217959 98.93 
L 111.559202 97.887 
L 109.60203 96.844 
L 107.217612 95.801 
L 104.996875 95.021601 
L 101.559525 94.17355 
L 98.122175 93.696769 
L 94.684825 93.550515 
L 91.247475 93.717216 
L 87.810125 94.178663 
L 84.372775 94.936912 
L 80.935425 95.993172 
L 77.498075 97.363273 
L 74.060725 99.077349 
L 70.623375 101.182478 
L 68.000013 103.102 
L 65.46735 105.268446 
L 63.446414 107.274 
L 62.03 108.870624 
L 62.03 108.870624 
" style="fill:none;stroke:#f29274;stroke-opacity:0.8;stroke-width:1.5;"/>
   </g>
   <g id="LineCollection_12">
    <path clip-path="url(#p2c32003acf)" d="M 92.96615 157.644846 
L 96.4035 158.07753 
L 99.84085 158.098794 
L 101.559525 157.939503 
L 104.556053 157.338 
L 104.996875 157.225963 
L 107.484342 156.295 
L 109.483735 155.252 
L 111.02602 154.209 
L 112.294059 153.166 
L 113.59025 151.888278 
L 115.308925 149.716199 
L 116.395177 147.951 
L 117.458039 145.865 
L 118.68784 142.736 
L 119.296667 140.65 
L 119.992457 137.521 
L 120.46495 134.193224 
L 120.644687 131.263 
L 120.602758 128.134 
L 120.28924 125.005 
L 119.657957 121.876 
L 118.746275 118.92528 
L 118.238636 117.704 
L 117.0276 115.279452 
L 115.901143 113.532 
L 115.133703 112.489 
L 113.251696 110.403 
L 111.871575 109.149603 
L 110.1529 107.865024 
L 108.434225 106.813129 
L 106.71555 105.955124 
L 104.759835 105.188 
L 103.2782 104.722543 
L 100.557185 104.145 
L 99.84085 104.026351 
L 96.4035 103.793687 
L 92.96615 103.982641 
L 89.5288 104.580882 
L 86.09145 105.595012 
L 84.372775 106.266142 
L 82.240638 107.274 
L 80.378268 108.317 
L 78.766457 109.36 
L 76.08513 111.446 
L 74.954593 112.489 
L 73.007864 114.575 
L 71.414876 116.661 
L 70.116527 118.747 
L 68.9047 121.242781 
L 68.269574 122.919 
L 67.677542 125.005 
L 67.288559 127.091 
L 67.09611 129.177 
L 67.096081 131.263 
L 67.287768 133.349 
L 67.673787 135.435 
L 68.258888 137.521 
L 69.052088 139.607 
L 70.069808 141.693 
L 71.330422 143.779 
L 72.862596 145.865 
L 74.711631 147.951 
L 76.943304 150.037 
L 79.21675 151.807579 
L 81.287522 153.166 
L 84.372775 154.838476 
L 86.09145 155.604803 
L 89.5288 156.822171 
L 92.96615 157.644846 
L 92.96615 157.644846 
" style="fill:none;stroke:#e46e56;stroke-opacity:0.8;stroke-width:1.5;"/>
   </g>
   <g id="LineCollection_13">
    <path clip-path="url(#p2c32003acf)" d="M 92.96615 145.155257 
L 94.684825 145.542718 
L 96.4035 145.745685 
L 98.122175 145.756667 
L 99.84085 145.564798 
L 101.559525 145.155139 
L 102.450835 144.822 
L 103.2782 144.491425 
L 104.562594 143.779 
L 104.996875 143.518755 
L 106.007615 142.736 
L 106.71555 142.13672 
L 107.14025 141.693 
L 108.047739 140.65 
L 108.434225 140.156839 
L 108.795608 139.607 
L 109.407462 138.564 
L 109.943736 137.521 
L 110.1529 137.051796 
L 110.373457 136.478 
L 110.713236 135.435 
L 110.991082 134.392 
L 111.207438 133.349 
L 111.362405 132.306 
L 111.455774 131.263 
L 111.487051 130.22 
L 111.455482 129.177 
L 111.360078 128.134 
L 111.199637 127.091 
L 110.972766 126.048 
L 110.677906 125.005 
L 110.31335 123.962 
L 110.1529 123.576461 
L 109.836187 122.919 
L 109.250781 121.876 
L 108.578809 120.833 
L 108.434225 120.633173 
L 107.710471 119.79 
L 106.71555 118.752486 
L 106.70912 118.747 
L 105.368267 117.704 
L 104.996875 117.438958 
L 103.608858 116.661 
L 103.2782 116.488911 
L 101.559525 115.826592 
L 100.745549 115.618 
L 99.84085 115.399599 
L 98.122175 115.182075 
L 96.4035 115.153331 
L 94.684825 115.306742 
L 93.068746 115.618 
L 92.96615 115.639083 
L 91.247475 116.174746 
L 90.082215 116.661 
L 89.5288 116.910336 
L 88.110944 117.704 
L 87.810125 117.887652 
L 86.621964 118.747 
L 86.09145 119.170207 
L 85.413428 119.79 
L 84.391767 120.833 
L 84.372775 120.854744 
L 83.573417 121.876 
L 82.861995 122.919 
L 82.6541 123.272638 
L 82.283264 123.962 
L 81.811682 125.005 
L 81.428975 126.048 
L 81.133319 127.091 
L 80.935425 128.073479 
L 80.924046 128.134 
L 80.806513 129.177 
L 80.767438 130.22 
L 80.806434 131.263 
L 80.923407 132.306 
L 80.935425 132.37042 
L 81.130988 133.349 
L 81.423354 134.392 
L 81.800467 135.435 
L 82.263381 136.478 
L 82.6541 137.220559 
L 82.826699 137.521 
L 83.518624 138.564 
L 84.308538 139.607 
L 84.372775 139.683047 
L 85.283207 140.65 
L 86.09145 141.422901 
L 86.413695 141.693 
L 87.777004 142.736 
L 87.810125 142.759399 
L 89.508387 143.779 
L 89.5288 143.790405 
L 91.247475 144.575421 
L 91.953838 144.822 
L 92.96615 145.155257 
" style="fill:none;stroke:#cf453c;stroke-opacity:0.8;stroke-width:1.5;"/>
   </g>
   <g id="LineCollection_14"/>
   <g id="LineCollection_15">
    <path d="M 405.765 224.09 
L 416.565 224.09 
" style="fill:none;stroke:#32cd32;stroke-width:0.5;"/>
    <path d="M 405.765 224.09 
L 416.565 224.09 
" style="fill:none;stroke:#32cd32;stroke-width:0.5;"/>
    <path d="M 405.765 224.09 
L 416.565 224.09 
" style="fill:none;stroke:#32cd32;stroke-width:0.5;"/>
    <path d="M 405.765 224.09 
L 416.565 224.09 
" style="fill:none;stroke:#32cd32;stroke-width:0.5;"/>
    <path d="M 405.765 224.09 
L 416.565 224.09 
" style="fill:none;stroke:#32cd32;stroke-width:0.5;"/>
    <path d="M 405.765 224.09 
L 416.565 224.09 
" style="fill:none;stroke:#32cd32;stroke-width:0.5;"/>
    <path d="M 405.765 224.09 
L 416.565 224.09 
" style="fill:none;stroke:#32cd32;stroke-width:0.5;"/>
    <path d="M 405.765 224.09 
L 416.565 224.09 
" style="fill:none;stroke:#32cd32;stroke-width:0.5;"/>
    <path d="M 405.765 224.09 
L 416.565 224.09 
" style="fill:none;stroke:#32cd32;stroke-width:0.5;"/>
    <path d="M 405.765 224.09 
L 416.565 224.09 
" style="fill:none;stroke:#32cd32;stroke-width:0.5;"/>
    <path d="M 405.765 203.23 
L 416.565 203.23 
" style="fill:none;stroke:#32cd32;stroke-width:0.5;"/>
    <path d="M 405.765 203.23 
L 416.565 203.23 
" style="fill:none;stroke:#32cd32;stroke-width:0.5;"/>
    <path d="M 405.765 203.23 
L 416.565 203.23 
" style="fill:none;stroke:#32cd32;stroke-width:0.5;"/>
    <path d="M 405.765 203.23 
L 416.565 203.23 
" style="fill:none;stroke:#32cd32;stroke-width:0.5;"/>
    <path d="M 405.765 203.23 
L 416.565 203.23 
" style="fill:none;stroke:#32cd32;stroke-width:0.5;"/>
    <path d="M 405.765 203.23 
L 416.565 203.23 
" style="fill:none;stroke:#32cd32;stroke-width:0.5;"/>
    <path d="M 405.765 203.23 
L 416.565 203.23 
" style="fill:none;stroke:#32cd32;stroke-width:0.5;"/>
    <path d="M 405.765 203.23 
L 416.565 203.23 
" style="fill:none;stroke:#32cd32;stroke-width:0.5;"/>
    <path d="M 405.765 203.23 
L 416.565 203.23 
" style="fill:none;stroke:#32cd32;stroke-width:0.5;"/>
    <path d="M 405.765 203.23 
L 416.565 203.23 
" style="fill:none;stroke:#32cd32;stroke-width:0.5;"/>
    <path d="M 405.765 182.37 
L 416.565 182.37 
" style="fill:none;stroke:#32cd32;stroke-width:0.5;"/>
    <path d="M 405.765 182.37 
L 416.565 182.37 
" style="fill:none;stroke:#32cd32;stroke-width:0.5;"/>
    <path d="M 405.765 182.37 
L 416.565 182.37 
" style="fill:none;stroke:#32cd32;stroke-width:0.5;"/>
    <path d="M 405.765 182.37 
L 416.565 182.37 
" style="fill:none;stroke:#32cd32;stroke-width:0.5;"/>
    <path d="M 405.765 182.37 
L 416.565 182.37 
" style="fill:none;stroke:#32cd32;stroke-width:0.5;"/>
    <path d="M 405.765 182.37 
L 416.565 182.37 
" style="fill:none;stroke:#32cd32;stroke-width:0.5;"/>
    <path d="M 405.765 182.37 
L 416.565 182.37 
" style="fill:none;stroke:#32cd32;stroke-width:0.5;"/>
    <path d="M 405.765 182.37 
L 416.565 182.37 
" style="fill:none;stroke:#32cd32;stroke-width:0.5;"/>
    <path d="M 405.765 182.37 
L 416.565 182.37 
" style="fill:none;stroke:#32cd32;stroke-width:0.5;"/>
    <path d="M 405.765 182.37 
L 416.565 182.37 
" style="fill:none;stroke:#32cd32;stroke-width:0.5;"/>
    <path d="M 405.765 161.51 
L 416.565 161.51 
" style="fill:none;stroke:#32cd32;stroke-width:0.5;"/>
    <path d="M 405.765 161.51 
L 416.565 161.51 
" style="fill:none;stroke:#32cd32;stroke-width:0.5;"/>
    <path d="M 405.765 161.51 
L 416.565 161.51 
" style="fill:none;stroke:#32cd32;stroke-width:0.5;"/>
    <path d="M 405.765 161.51 
L 416.565 161.51 
" style="fill:none;stroke:#32cd32;stroke-width:0.5;"/>
    <path d="M 405.765 161.51 
L 416.565 161.51 
" style="fill:none;stroke:#32cd32;stroke-width:0.5;"/>
    <path d="M 405.765 161.51 
L 416.565 161.51 
" style="fill:none;stroke:#32cd32;stroke-width:0.5;"/>
    <path d="M 405.765 161.51 
L 416.565 161.51 
" style="fill:none;stroke:#32cd32;stroke-width:0.5;"/>
    <path d="M 405.765 161.51 
L 416.565 161.51 
" style="fill:none;stroke:#32cd32;stroke-width:0.5;"/>
    <path d="M 405.765 161.51 
L 416.565 161.51 
" style="fill:none;stroke:#32cd32;stroke-width:0.5;"/>
    <path d="M 405.765 161.51 
L 416.565 161.51 
" style="fill:none;stroke:#32cd32;stroke-width:0.5;"/>
    <path d="M 405.765 140.65 
L 416.565 140.65 
" style="fill:none;stroke:#32cd32;stroke-width:0.5;"/>
    <path d="M 405.765 140.65 
L 416.565 140.65 
" style="fill:none;stroke:#32cd32;stroke-width:0.5;"/>
    <path d="M 405.765 140.65 
L 416.565 140.65 
" style="fill:none;stroke:#32cd32;stroke-width:0.5;"/>
    <path d="M 405.765 140.65 
L 416.565 140.65 
" style="fill:none;stroke:#32cd32;stroke-width:0.5;"/>
    <path d="M 405.765 140.65 
L 416.565 140.65 
" style="fill:none;stroke:#32cd32;stroke-width:0.5;"/>
    <path d="M 405.765 140.65 
L 416.565 140.65 
" style="fill:none;stroke:#32cd32;stroke-width:0.5;"/>
    <path d="M 405.765 140.65 
L 416.565 140.65 
" style="fill:none;stroke:#32cd32;stroke-width:0.5;"/>
    <path d="M 405.765 140.65 
L 416.565 140.65 
" style="fill:none;stroke:#32cd32;stroke-width:0.5;"/>
    <path d="M 405.765 140.65 
L 416.565 140.65 
" style="fill:none;stroke:#32cd32;stroke-width:0.5;"/>
    <path d="M 405.765 140.65 
L 416.565 140.65 
" style="fill:none;stroke:#32cd32;stroke-width:0.5;"/>
    <path d="M 405.765 119.79 
L 416.565 119.79 
" style="fill:none;stroke:#32cd32;stroke-width:0.5;"/>
    <path d="M 405.765 119.79 
L 416.565 119.79 
" style="fill:none;stroke:#32cd32;stroke-width:0.5;"/>
    <path d="M 405.765 119.79 
L 416.565 119.79 
" style="fill:none;stroke:#32cd32;stroke-width:0.5;"/>
    <path d="M 405.765 119.79 
L 416.565 119.79 
" style="fill:none;stroke:#32cd32;stroke-width:0.5;"/>
    <path d="M 405.765 119.79 
L 416.565 119.79 
" style="fill:none;stroke:#32cd32;stroke-width:0.5;"/>
    <path d="M 405.765 119.79 
L 416.565 119.79 
" style="fill:none;stroke:#32cd32;stroke-width:0.5;"/>
    <path d="M 405.765 119.79 
L 416.565 119.79 
" style="fill:none;stroke:#32cd32;stroke-width:0.5;"/>
    <path d="M 405.765 119.79 
L 416.565 119.79 
" style="fill:none;stroke:#32cd32;stroke-width:0.5;"/>
    <path d="M 405.765 119.79 
L 416.565 119.79 
" style="fill:none;stroke:#32cd32;stroke-width:0.5;"/>
    <path d="M 405.765 119.79 
L 416.565 119.79 
" style="fill:none;stroke:#32cd32;stroke-width:0.5;"/>
    <path d="M 405.765 98.93 
L 416.565 98.93 
" style="fill:none;stroke:#32cd32;stroke-width:0.5;"/>
    <path d="M 405.765 98.93 
L 416.565 98.93 
" style="fill:none;stroke:#32cd32;stroke-width:0.5;"/>
    <path d="M 405.765 98.93 
L 416.565 98.93 
" style="fill:none;stroke:#32cd32;stroke-width:0.5;"/>
    <path d="M 405.765 98.93 
L 416.565 98.93 
" style="fill:none;stroke:#32cd32;stroke-width:0.5;"/>
    <path d="M 405.765 98.93 
L 416.565 98.93 
" style="fill:none;stroke:#32cd32;stroke-width:0.5;"/>
    <path d="M 405.765 98.93 
L 416.565 98.93 
" style="fill:none;stroke:#32cd32;stroke-width:0.5;"/>
    <path d="M 405.765 98.93 
L 416.565 98.93 
" style="fill:none;stroke:#32cd32;stroke-width:0.5;"/>
    <path d="M 405.765 98.93 
L 416.565 98.93 
" style="fill:none;stroke:#32cd32;stroke-width:0.5;"/>
    <path d="M 405.765 98.93 
L 416.565 98.93 
" style="fill:none;stroke:#32cd32;stroke-width:0.5;"/>
    <path d="M 405.765 98.93 
L 416.565 98.93 
" style="fill:none;stroke:#32cd32;stroke-width:0.5;"/>
    <path d="M 405.765 78.07 
L 416.565 78.07 
" style="fill:none;stroke:#32cd32;stroke-width:0.5;"/>
    <path d="M 405.765 78.07 
L 416.565 78.07 
" style="fill:none;stroke:#32cd32;stroke-width:0.5;"/>
    <path d="M 405.765 78.07 
L 416.565 78.07 
" style="fill:none;stroke:#32cd32;stroke-width:0.5;"/>
    <path d="M 405.765 78.07 
L 416.565 78.07 
" style="fill:none;stroke:#32cd32;stroke-width:0.5;"/>
    <path d="M 405.765 78.07 
L 416.565 78.07 
" style="fill:none;stroke:#32cd32;stroke-width:0.5;"/>
    <path d="M 405.765 78.07 
L 416.565 78.07 
" style="fill:none;stroke:#32cd32;stroke-width:0.5;"/>
    <path d="M 405.765 78.07 
L 416.565 78.07 
" style="fill:none;stroke:#32cd32;stroke-width:0.5;"/>
    <path d="M 405.765 78.07 
L 416.565 78.07 
" style="fill:none;stroke:#32cd32;stroke-width:0.5;"/>
    <path d="M 405.765 78.07 
L 416.565 78.07 
" style="fill:none;stroke:#32cd32;stroke-width:0.5;"/>
    <path d="M 405.765 78.07 
L 416.565 78.07 
" style="fill:none;stroke:#32cd32;stroke-width:0.5;"/>
    <path d="M 405.765 57.21 
L 416.565 57.21 
" style="fill:none;stroke:#32cd32;stroke-width:0.5;"/>
    <path d="M 405.765 57.21 
L 416.565 57.21 
" style="fill:none;stroke:#32cd32;stroke-width:0.5;"/>
    <path d="M 405.765 57.21 
L 416.565 57.21 
" style="fill:none;stroke:#32cd32;stroke-width:0.5;"/>
    <path d="M 405.765 57.21 
L 416.565 57.21 
" style="fill:none;stroke:#32cd32;stroke-width:0.5;"/>
    <path d="M 405.765 57.21 
L 416.565 57.21 
" style="fill:none;stroke:#32cd32;stroke-width:0.5;"/>
    <path d="M 405.765 57.21 
L 416.565 57.21 
" style="fill:none;stroke:#32cd32;stroke-width:0.5;"/>
    <path d="M 405.765 57.21 
L 416.565 57.21 
" style="fill:none;stroke:#32cd32;stroke-width:0.5;"/>
    <path d="M 405.765 57.21 
L 416.565 57.21 
" style="fill:none;stroke:#32cd32;stroke-width:0.5;"/>
    <path d="M 405.765 57.21 
L 416.565 57.21 
" style="fill:none;stroke:#32cd32;stroke-width:0.5;"/>
    <path d="M 405.765 57.21 
L 416.565 57.21 
" style="fill:none;stroke:#32cd32;stroke-width:0.5;"/>
    <path d="M 405.765 36.35 
L 416.565 36.35 
" style="fill:none;stroke:#32cd32;stroke-width:0.5;"/>
    <path d="M 405.765 36.35 
L 416.565 36.35 
" style="fill:none;stroke:#32cd32;stroke-width:0.5;"/>
    <path d="M 405.765 36.35 
L 416.565 36.35 
" style="fill:none;stroke:#32cd32;stroke-width:0.5;"/>
    <path d="M 405.765 36.35 
L 416.565 36.35 
" style="fill:none;stroke:#32cd32;stroke-width:0.5;"/>
    <path d="M 405.765 36.35 
L 416.565 36.35 
" style="fill:none;stroke:#32cd32;stroke-width:0.5;"/>
    <path d="M 405.765 36.35 
L 416.565 36.35 
" style="fill:none;stroke:#32cd32;stroke-width:0.5;"/>
    <path d="M 405.765 36.35 
L 416.565 36.35 
" style="fill:none;stroke:#32cd32;stroke-width:0.5;"/>
    <path d="M 405.765 36.35 
L 416.565 36.35 
" style="fill:none;stroke:#32cd32;stroke-width:0.5;"/>
    <path d="M 405.765 36.35 
L 416.565 36.35 
" style="fill:none;stroke:#32cd32;stroke-width:0.5;"/>
    <path d="M 405.765 36.35 
L 416.565 36.35 
" style="fill:none;stroke:#32cd32;stroke-width:0.5;"/>
   </g>
   <g id="LineCollection_16">
    <path d="M 79.21675 25.92 
L 79.21675 15.12 
" style="fill:none;stroke:#32cd32;stroke-width:0.5;"/>
    <path d="M 113.59025 25.92 
L 113.59025 15.12 
" style="fill:none;stroke:#32cd32;stroke-width:0.5;"/>
    <path d="M 147.96375 25.92 
L 147.96375 15.12 
" style="fill:none;stroke:#32cd32;stroke-width:0.5;"/>
    <path d="M 182.33725 25.92 
L 182.33725 15.12 
" style="fill:none;stroke:#32cd32;stroke-width:0.5;"/>
    <path d="M 216.71075 25.92 
L 216.71075 15.12 
" style="fill:none;stroke:#32cd32;stroke-width:0.5;"/>
    <path d="M 251.08425 25.92 
L 251.08425 15.12 
" style="fill:none;stroke:#32cd32;stroke-width:0.5;"/>
    <path d="M 285.45775 25.92 
L 285.45775 15.12 
" style="fill:none;stroke:#32cd32;stroke-width:0.5;"/>
    <path d="M 319.83125 25.92 
L 319.83125 15.12 
" style="fill:none;stroke:#32cd32;stroke-width:0.5;"/>
    <path d="M 354.20475 25.92 
L 354.20475 15.12 
" style="fill:none;stroke:#32cd32;stroke-width:0.5;"/>
    <path d="M 388.57825 25.92 
L 388.57825 15.12 
" style="fill:none;stroke:#32cd32;stroke-width:0.5;"/>
    <path d="M 79.21675 25.92 
L 79.21675 15.12 
" style="fill:none;stroke:#32cd32;stroke-width:0.5;"/>
    <path d="M 113.59025 25.92 
L 113.59025 15.12 
" style="fill:none;stroke:#32cd32;stroke-width:0.5;"/>
    <path d="M 147.96375 25.92 
L 147.96375 15.12 
" style="fill:none;stroke:#32cd32;stroke-width:0.5;"/>
    <path d="M 182.33725 25.92 
L 182.33725 15.12 
" style="fill:none;stroke:#32cd32;stroke-width:0.5;"/>
    <path d="M 216.71075 25.92 
L 216.71075 15.12 
" style="fill:none;stroke:#32cd32;stroke-width:0.5;"/>
    <path d="M 251.08425 25.92 
L 251.08425 15.12 
" style="fill:none;stroke:#32cd32;stroke-width:0.5;"/>
    <path d="M 285.45775 25.92 
L 285.45775 15.12 
" style="fill:none;stroke:#32cd32;stroke-width:0.5;"/>
    <path d="M 319.83125 25.92 
L 319.83125 15.12 
" style="fill:none;stroke:#32cd32;stroke-width:0.5;"/>
    <path d="M 354.20475 25.92 
L 354.20475 15.12 
" style="fill:none;stroke:#32cd32;stroke-width:0.5;"/>
    <path d="M 388.57825 25.92 
L 388.57825 15.12 
" style="fill:none;stroke:#32cd32;stroke-width:0.5;"/>
    <path d="M 79.21675 25.92 
L 79.21675 15.12 
" style="fill:none;stroke:#32cd32;stroke-width:0.5;"/>
    <path d="M 113.59025 25.92 
L 113.59025 15.12 
" style="fill:none;stroke:#32cd32;stroke-width:0.5;"/>
    <path d="M 147.96375 25.92 
L 147.96375 15.12 
" style="fill:none;stroke:#32cd32;stroke-width:0.5;"/>
    <path d="M 182.33725 25.92 
L 182.33725 15.12 
" style="fill:none;stroke:#32cd32;stroke-width:0.5;"/>
    <path d="M 216.71075 25.92 
L 216.71075 15.12 
" style="fill:none;stroke:#32cd32;stroke-width:0.5;"/>
    <path d="M 251.08425 25.92 
L 251.08425 15.12 
" style="fill:none;stroke:#32cd32;stroke-width:0.5;"/>
    <path d="M 285.45775 25.92 
L 285.45775 15.12 
" style="fill:none;stroke:#32cd32;stroke-width:0.5;"/>
    <path d="M 319.83125 25.92 
L 319.83125 15.12 
" style="fill:none;stroke:#32cd32;stroke-width:0.5;"/>
    <path d="M 354.20475 25.92 
L 354.20475 15.12 
" style="fill:none;stroke:#32cd32;stroke-width:0.5;"/>
    <path d="M 388.57825 25.92 
L 388.57825 15.12 
" style="fill:none;stroke:#32cd32;stroke-width:0.5;"/>
    <path d="M 79.21675 25.92 
L 79.21675 15.12 
" style="fill:none;stroke:#32cd32;stroke-width:0.5;"/>
    <path d="M 113.59025 25.92 
L 113.59025 15.12 
" style="fill:none;stroke:#32cd32;stroke-width:0.5;"/>
    <path d="M 147.96375 25.92 
L 147.96375 15.12 
" style="fill:none;stroke:#32cd32;stroke-width:0.5;"/>
    <path d="M 182.33725 25.92 
L 182.33725 15.12 
" style="fill:none;stroke:#32cd32;stroke-width:0.5;"/>
    <path d="M 216.71075 25.92 
L 216.71075 15.12 
" style="fill:none;stroke:#32cd32;stroke-width:0.5;"/>
    <path d="M 251.08425 25.92 
L 251.08425 15.12 
" style="fill:none;stroke:#32cd32;stroke-width:0.5;"/>
    <path d="M 285.45775 25.92 
L 285.45775 15.12 
" style="fill:none;stroke:#32cd32;stroke-width:0.5;"/>
    <path d="M 319.83125 25.92 
L 319.83125 15.12 
" style="fill:none;stroke:#32cd32;stroke-width:0.5;"/>
    <path d="M 354.20475 25.92 
L 354.20475 15.12 
" style="fill:none;stroke:#32cd32;stroke-width:0.5;"/>
    <path d="M 388.57825 25.92 
L 388.57825 15.12 
" style="fill:none;stroke:#32cd32;stroke-width:0.5;"/>
    <path d="M 79.21675 25.92 
L 79.21675 15.12 
" style="fill:none;stroke:#32cd32;stroke-width:0.5;"/>
    <path d="M 113.59025 25.92 
L 113.59025 15.12 
" style="fill:none;stroke:#32cd32;stroke-width:0.5;"/>
    <path d="M 147.96375 25.92 
L 147.96375 15.12 
" style="fill:none;stroke:#32cd32;stroke-width:0.5;"/>
    <path d="M 182.33725 25.92 
L 182.33725 15.12 
" style="fill:none;stroke:#32cd32;stroke-width:0.5;"/>
    <path d="M 216.71075 25.92 
L 216.71075 15.12 
" style="fill:none;stroke:#32cd32;stroke-width:0.5;"/>
    <path d="M 251.08425 25.92 
L 251.08425 15.12 
" style="fill:none;stroke:#32cd32;stroke-width:0.5;"/>
    <path d="M 285.45775 25.92 
L 285.45775 15.12 
" style="fill:none;stroke:#32cd32;stroke-width:0.5;"/>
    <path d="M 319.83125 25.92 
L 319.83125 15.12 
" style="fill:none;stroke:#32cd32;stroke-width:0.5;"/>
    <path d="M 354.20475 25.92 
L 354.20475 15.12 
" style="fill:none;stroke:#32cd32;stroke-width:0.5;"/>
    <path d="M 388.57825 25.92 
L 388.57825 15.12 
" style="fill:none;stroke:#32cd32;stroke-width:0.5;"/>
    <path d="M 79.21675 25.92 
L 79.21675 15.12 
" style="fill:none;stroke:#32cd32;stroke-width:0.5;"/>
    <path d="M 113.59025 25.92 
L 113.59025 15.12 
" style="fill:none;stroke:#32cd32;stroke-width:0.5;"/>
    <path d="M 147.96375 25.92 
L 147.96375 15.12 
" style="fill:none;stroke:#32cd32;stroke-width:0.5;"/>
    <path d="M 182.33725 25.92 
L 182.33725 15.12 
" style="fill:none;stroke:#32cd32;stroke-width:0.5;"/>
    <path d="M 216.71075 25.92 
L 216.71075 15.12 
" style="fill:none;stroke:#32cd32;stroke-width:0.5;"/>
    <path d="M 251.08425 25.92 
L 251.08425 15.12 
" style="fill:none;stroke:#32cd32;stroke-width:0.5;"/>
    <path d="M 285.45775 25.92 
L 285.45775 15.12 
" style="fill:none;stroke:#32cd32;stroke-width:0.5;"/>
    <path d="M 319.83125 25.92 
L 319.83125 15.12 
" style="fill:none;stroke:#32cd32;stroke-width:0.5;"/>
    <path d="M 354.20475 25.92 
L 354.20475 15.12 
" style="fill:none;stroke:#32cd32;stroke-width:0.5;"/>
    <path d="M 388.57825 25.92 
L 388.57825 15.12 
" style="fill:none;stroke:#32cd32;stroke-width:0.5;"/>
    <path d="M 79.21675 25.92 
L 79.21675 15.12 
" style="fill:none;stroke:#32cd32;stroke-width:0.5;"/>
    <path d="M 113.59025 25.92 
L 113.59025 15.12 
" style="fill:none;stroke:#32cd32;stroke-width:0.5;"/>
    <path d="M 147.96375 25.92 
L 147.96375 15.12 
" style="fill:none;stroke:#32cd32;stroke-width:0.5;"/>
    <path d="M 182.33725 25.92 
L 182.33725 15.12 
" style="fill:none;stroke:#32cd32;stroke-width:0.5;"/>
    <path d="M 216.71075 25.92 
L 216.71075 15.12 
" style="fill:none;stroke:#32cd32;stroke-width:0.5;"/>
    <path d="M 251.08425 25.92 
L 251.08425 15.12 
" style="fill:none;stroke:#32cd32;stroke-width:0.5;"/>
    <path d="M 285.45775 25.92 
L 285.45775 15.12 
" style="fill:none;stroke:#32cd32;stroke-width:0.5;"/>
    <path d="M 319.83125 25.92 
L 319.83125 15.12 
" style="fill:none;stroke:#32cd32;stroke-width:0.5;"/>
    <path d="M 354.20475 25.92 
L 354.20475 15.12 
" style="fill:none;stroke:#32cd32;stroke-width:0.5;"/>
    <path d="M 388.57825 25.92 
L 388.57825 15.12 
" style="fill:none;stroke:#32cd32;stroke-width:0.5;"/>
    <path d="M 79.21675 25.92 
L 79.21675 15.12 
" style="fill:none;stroke:#32cd32;stroke-width:0.5;"/>
    <path d="M 113.59025 25.92 
L 113.59025 15.12 
" style="fill:none;stroke:#32cd32;stroke-width:0.5;"/>
    <path d="M 147.96375 25.92 
L 147.96375 15.12 
" style="fill:none;stroke:#32cd32;stroke-width:0.5;"/>
    <path d="M 182.33725 25.92 
L 182.33725 15.12 
" style="fill:none;stroke:#32cd32;stroke-width:0.5;"/>
    <path d="M 216.71075 25.92 
L 216.71075 15.12 
" style="fill:none;stroke:#32cd32;stroke-width:0.5;"/>
    <path d="M 251.08425 25.92 
L 251.08425 15.12 
" style="fill:none;stroke:#32cd32;stroke-width:0.5;"/>
    <path d="M 285.45775 25.92 
L 285.45775 15.12 
" style="fill:none;stroke:#32cd32;stroke-width:0.5;"/>
    <path d="M 319.83125 25.92 
L 319.83125 15.12 
" style="fill:none;stroke:#32cd32;stroke-width:0.5;"/>
    <path d="M 354.20475 25.92 
L 354.20475 15.12 
" style="fill:none;stroke:#32cd32;stroke-width:0.5;"/>
    <path d="M 388.57825 25.92 
L 388.57825 15.12 
" style="fill:none;stroke:#32cd32;stroke-width:0.5;"/>
    <path d="M 79.21675 25.92 
L 79.21675 15.12 
" style="fill:none;stroke:#32cd32;stroke-width:0.5;"/>
    <path d="M 113.59025 25.92 
L 113.59025 15.12 
" style="fill:none;stroke:#32cd32;stroke-width:0.5;"/>
    <path d="M 147.96375 25.92 
L 147.96375 15.12 
" style="fill:none;stroke:#32cd32;stroke-width:0.5;"/>
    <path d="M 182.33725 25.92 
L 182.33725 15.12 
" style="fill:none;stroke:#32cd32;stroke-width:0.5;"/>
    <path d="M 216.71075 25.92 
L 216.71075 15.12 
" style="fill:none;stroke:#32cd32;stroke-width:0.5;"/>
    <path d="M 251.08425 25.92 
L 251.08425 15.12 
" style="fill:none;stroke:#32cd32;stroke-width:0.5;"/>
    <path d="M 285.45775 25.92 
L 285.45775 15.12 
" style="fill:none;stroke:#32cd32;stroke-width:0.5;"/>
    <path d="M 319.83125 25.92 
L 319.83125 15.12 
" style="fill:none;stroke:#32cd32;stroke-width:0.5;"/>
    <path d="M 354.20475 25.92 
L 354.20475 15.12 
" style="fill:none;stroke:#32cd32;stroke-width:0.5;"/>
    <path d="M 388.57825 25.92 
L 388.57825 15.12 
" style="fill:none;stroke:#32cd32;stroke-width:0.5;"/>
    <path d="M 79.21675 25.92 
L 79.21675 15.12 
" style="fill:none;stroke:#32cd32;stroke-width:0.5;"/>
    <path d="M 113.59025 25.92 
L 113.59025 15.12 
" style="fill:none;stroke:#32cd32;stroke-width:0.5;"/>
    <path d="M 147.96375 25.92 
L 147.96375 15.12 
" style="fill:none;stroke:#32cd32;stroke-width:0.5;"/>
    <path d="M 182.33725 25.92 
L 182.33725 15.12 
" style="fill:none;stroke:#32cd32;stroke-width:0.5;"/>
    <path d="M 216.71075 25.92 
L 216.71075 15.12 
" style="fill:none;stroke:#32cd32;stroke-width:0.5;"/>
    <path d="M 251.08425 25.92 
L 251.08425 15.12 
" style="fill:none;stroke:#32cd32;stroke-width:0.5;"/>
    <path d="M 285.45775 25.92 
L 285.45775 15.12 
" style="fill:none;stroke:#32cd32;stroke-width:0.5;"/>
    <path d="M 319.83125 25.92 
L 319.83125 15.12 
" style="fill:none;stroke:#32cd32;stroke-width:0.5;"/>
    <path d="M 354.20475 25.92 
L 354.20475 15.12 
" style="fill:none;stroke:#32cd32;stroke-width:0.5;"/>
    <path d="M 388.57825 25.92 
L 388.57825 15.12 
" style="fill:none;stroke:#32cd32;stroke-width:0.5;"/>
   </g>
   <g id="line2d_13">
    <defs>
     <path d="M -3 3 
L 3 -3 
M -3 -3 
L 3 3 
" id="m7a01eef567" style="stroke:#000000;"/>
    </defs>
    <g clip-path="url(#p2c32003acf)">
     <use style="stroke:#000000;" x="79.21675" xlink:href="#m7a01eef567" y="224.09"/>
     <use style="stroke:#000000;" x="113.59025" xlink:href="#m7a01eef567" y="224.09"/>
     <use style="stroke:#000000;" x="147.96375" xlink:href="#m7a01eef567" y="224.09"/>
     <use style="stroke:#000000;" x="182.33725" xlink:href="#m7a01eef567" y="224.09"/>
     <use style="stroke:#000000;" x="216.71075" xlink:href="#m7a01eef567" y="224.09"/>
     <use style="stroke:#000000;" x="251.08425" xlink:href="#m7a01eef567" y="224.09"/>
     <use style="stroke:#000000;" x="285.45775" xlink:href="#m7a01eef567" y="224.09"/>
     <use style="stroke:#000000;" x="319.83125" xlink:href="#m7a01eef567" y="224.09"/>
     <use style="stroke:#000000;" x="354.20475" xlink:href="#m7a01eef567" y="224.09"/>
     <use style="stroke:#000000;" x="388.57825" xlink:href="#m7a01eef567" y="224.09"/>
     <use style="stroke:#000000;" x="79.21675" xlink:href="#m7a01eef567" y="203.23"/>
     <use style="stroke:#000000;" x="113.59025" xlink:href="#m7a01eef567" y="203.23"/>
     <use style="stroke:#000000;" x="147.96375" xlink:href="#m7a01eef567" y="203.23"/>
     <use style="stroke:#000000;" x="182.33725" xlink:href="#m7a01eef567" y="203.23"/>
     <use style="stroke:#000000;" x="216.71075" xlink:href="#m7a01eef567" y="203.23"/>
     <use style="stroke:#000000;" x="251.08425" xlink:href="#m7a01eef567" y="203.23"/>
     <use style="stroke:#000000;" x="285.45775" xlink:href="#m7a01eef567" y="203.23"/>
     <use style="stroke:#000000;" x="319.83125" xlink:href="#m7a01eef567" y="203.23"/>
     <use style="stroke:#000000;" x="354.20475" xlink:href="#m7a01eef567" y="203.23"/>
     <use style="stroke:#000000;" x="388.57825" xlink:href="#m7a01eef567" y="203.23"/>
     <use style="stroke:#000000;" x="79.21675" xlink:href="#m7a01eef567" y="182.37"/>
     <use style="stroke:#000000;" x="113.59025" xlink:href="#m7a01eef567" y="182.37"/>
     <use style="stroke:#000000;" x="147.96375" xlink:href="#m7a01eef567" y="182.37"/>
     <use style="stroke:#000000;" x="182.33725" xlink:href="#m7a01eef567" y="182.37"/>
     <use style="stroke:#000000;" x="216.71075" xlink:href="#m7a01eef567" y="182.37"/>
     <use style="stroke:#000000;" x="251.08425" xlink:href="#m7a01eef567" y="182.37"/>
     <use style="stroke:#000000;" x="285.45775" xlink:href="#m7a01eef567" y="182.37"/>
     <use style="stroke:#000000;" x="319.83125" xlink:href="#m7a01eef567" y="182.37"/>
     <use style="stroke:#000000;" x="354.20475" xlink:href="#m7a01eef567" y="182.37"/>
     <use style="stroke:#000000;" x="388.57825" xlink:href="#m7a01eef567" y="182.37"/>
     <use style="stroke:#000000;" x="79.21675" xlink:href="#m7a01eef567" y="161.51"/>
     <use style="stroke:#000000;" x="113.59025" xlink:href="#m7a01eef567" y="161.51"/>
     <use style="stroke:#000000;" x="147.96375" xlink:href="#m7a01eef567" y="161.51"/>
     <use style="stroke:#000000;" x="182.33725" xlink:href="#m7a01eef567" y="161.51"/>
     <use style="stroke:#000000;" x="216.71075" xlink:href="#m7a01eef567" y="161.51"/>
     <use style="stroke:#000000;" x="251.08425" xlink:href="#m7a01eef567" y="161.51"/>
     <use style="stroke:#000000;" x="285.45775" xlink:href="#m7a01eef567" y="161.51"/>
     <use style="stroke:#000000;" x="319.83125" xlink:href="#m7a01eef567" y="161.51"/>
     <use style="stroke:#000000;" x="354.20475" xlink:href="#m7a01eef567" y="161.51"/>
     <use style="stroke:#000000;" x="388.57825" xlink:href="#m7a01eef567" y="161.51"/>
     <use style="stroke:#000000;" x="79.21675" xlink:href="#m7a01eef567" y="140.65"/>
     <use style="stroke:#000000;" x="113.59025" xlink:href="#m7a01eef567" y="140.65"/>
     <use style="stroke:#000000;" x="147.96375" xlink:href="#m7a01eef567" y="140.65"/>
     <use style="stroke:#000000;" x="182.33725" xlink:href="#m7a01eef567" y="140.65"/>
     <use style="stroke:#000000;" x="216.71075" xlink:href="#m7a01eef567" y="140.65"/>
     <use style="stroke:#000000;" x="251.08425" xlink:href="#m7a01eef567" y="140.65"/>
     <use style="stroke:#000000;" x="285.45775" xlink:href="#m7a01eef567" y="140.65"/>
     <use style="stroke:#000000;" x="319.83125" xlink:href="#m7a01eef567" y="140.65"/>
     <use style="stroke:#000000;" x="354.20475" xlink:href="#m7a01eef567" y="140.65"/>
     <use style="stroke:#000000;" x="388.57825" xlink:href="#m7a01eef567" y="140.65"/>
     <use style="stroke:#000000;" x="79.21675" xlink:href="#m7a01eef567" y="119.79"/>
     <use style="stroke:#000000;" x="113.59025" xlink:href="#m7a01eef567" y="119.79"/>
     <use style="stroke:#000000;" x="147.96375" xlink:href="#m7a01eef567" y="119.79"/>
     <use style="stroke:#000000;" x="182.33725" xlink:href="#m7a01eef567" y="119.79"/>
     <use style="stroke:#000000;" x="216.71075" xlink:href="#m7a01eef567" y="119.79"/>
     <use style="stroke:#000000;" x="251.08425" xlink:href="#m7a01eef567" y="119.79"/>
     <use style="stroke:#000000;" x="285.45775" xlink:href="#m7a01eef567" y="119.79"/>
     <use style="stroke:#000000;" x="319.83125" xlink:href="#m7a01eef567" y="119.79"/>
     <use style="stroke:#000000;" x="354.20475" xlink:href="#m7a01eef567" y="119.79"/>
     <use style="stroke:#000000;" x="388.57825" xlink:href="#m7a01eef567" y="119.79"/>
     <use style="stroke:#000000;" x="79.21675" xlink:href="#m7a01eef567" y="98.93"/>
     <use style="stroke:#000000;" x="113.59025" xlink:href="#m7a01eef567" y="98.93"/>
     <use style="stroke:#000000;" x="147.96375" xlink:href="#m7a01eef567" y="98.93"/>
     <use style="stroke:#000000;" x="182.33725" xlink:href="#m7a01eef567" y="98.93"/>
     <use style="stroke:#000000;" x="216.71075" xlink:href="#m7a01eef567" y="98.93"/>
     <use style="stroke:#000000;" x="251.08425" xlink:href="#m7a01eef567" y="98.93"/>
     <use style="stroke:#000000;" x="285.45775" xlink:href="#m7a01eef567" y="98.93"/>
     <use style="stroke:#000000;" x="319.83125" xlink:href="#m7a01eef567" y="98.93"/>
     <use style="stroke:#000000;" x="354.20475" xlink:href="#m7a01eef567" y="98.93"/>
     <use style="stroke:#000000;" x="388.57825" xlink:href="#m7a01eef567" y="98.93"/>
     <use style="stroke:#000000;" x="79.21675" xlink:href="#m7a01eef567" y="78.07"/>
     <use style="stroke:#000000;" x="113.59025" xlink:href="#m7a01eef567" y="78.07"/>
     <use style="stroke:#000000;" x="147.96375" xlink:href="#m7a01eef567" y="78.07"/>
     <use style="stroke:#000000;" x="182.33725" xlink:href="#m7a01eef567" y="78.07"/>
     <use style="stroke:#000000;" x="216.71075" xlink:href="#m7a01eef567" y="78.07"/>
     <use style="stroke:#000000;" x="251.08425" xlink:href="#m7a01eef567" y="78.07"/>
     <use style="stroke:#000000;" x="285.45775" xlink:href="#m7a01eef567" y="78.07"/>
     <use style="stroke:#000000;" x="319.83125" xlink:href="#m7a01eef567" y="78.07"/>
     <use style="stroke:#000000;" x="354.20475" xlink:href="#m7a01eef567" y="78.07"/>
     <use style="stroke:#000000;" x="388.57825" xlink:href="#m7a01eef567" y="78.07"/>
     <use style="stroke:#000000;" x="79.21675" xlink:href="#m7a01eef567" y="57.21"/>
     <use style="stroke:#000000;" x="113.59025" xlink:href="#m7a01eef567" y="57.21"/>
     <use style="stroke:#000000;" x="147.96375" xlink:href="#m7a01eef567" y="57.21"/>
     <use style="stroke:#000000;" x="182.33725" xlink:href="#m7a01eef567" y="57.21"/>
     <use style="stroke:#000000;" x="216.71075" xlink:href="#m7a01eef567" y="57.21"/>
     <use style="stroke:#000000;" x="251.08425" xlink:href="#m7a01eef567" y="57.21"/>
     <use style="stroke:#000000;" x="285.45775" xlink:href="#m7a01eef567" y="57.21"/>
     <use style="stroke:#000000;" x="319.83125" xlink:href="#m7a01eef567" y="57.21"/>
     <use style="stroke:#000000;" x="354.20475" xlink:href="#m7a01eef567" y="57.21"/>
     <use style="stroke:#000000;" x="388.57825" xlink:href="#m7a01eef567" y="57.21"/>
     <use style="stroke:#000000;" x="79.21675" xlink:href="#m7a01eef567" y="36.35"/>
     <use style="stroke:#000000;" x="113.59025" xlink:href="#m7a01eef567" y="36.35"/>
     <use style="stroke:#000000;" x="147.96375" xlink:href="#m7a01eef567" y="36.35"/>
     <use style="stroke:#000000;" x="182.33725" xlink:href="#m7a01eef567" y="36.35"/>
     <use style="stroke:#000000;" x="216.71075" xlink:href="#m7a01eef567" y="36.35"/>
     <use style="stroke:#000000;" x="251.08425" xlink:href="#m7a01eef567" y="36.35"/>
     <use style="stroke:#000000;" x="285.45775" xlink:href="#m7a01eef567" y="36.35"/>
     <use style="stroke:#000000;" x="319.83125" xlink:href="#m7a01eef567" y="36.35"/>
     <use style="stroke:#000000;" x="354.20475" xlink:href="#m7a01eef567" y="36.35"/>
     <use style="stroke:#000000;" x="388.57825" xlink:href="#m7a01eef567" y="36.35"/>
    </g>
   </g>
   <g id="patch_3">
    <path d="M 62.03 234.52 
L 62.03 25.92 
" style="fill:none;stroke:#000000;stroke-linecap:square;stroke-linejoin:miter;stroke-width:0.8;"/>
   </g>
   <g id="patch_4">
    <path d="M 405.765 234.52 
L 405.765 25.92 
" style="fill:none;stroke:#000000;stroke-linecap:square;stroke-linejoin:miter;stroke-width:0.8;"/>
   </g>
   <g id="patch_5">
    <path d="M 62.03 234.52 
L 405.765 234.52 
" style="fill:none;stroke:#000000;stroke-linecap:square;stroke-linejoin:miter;stroke-width:0.8;"/>
   </g>
   <g id="patch_6">
    <path d="M 62.03 25.92 
L 405.765 25.92 
" style="fill:none;stroke:#000000;stroke-linecap:square;stroke-linejoin:miter;stroke-width:0.8;"/>
   </g>
  </g>
 </g>
 <defs>
  <clipPath id="p2c32003acf">
   <rect height="208.6" width="343.735" x="62.03" y="25.92"/>
  </clipPath>
 </defs>
</svg>
